<svg id="Capa_1" enable-background="new 0 0 511.552 511.552" height="512" viewBox="0 0 511.552 511.552" width="512" xmlns="http://www.w3.org/2000/svg"><g><g><path d="m391.268 5.866h30v32.373h-30z" fill="#fdae02" transform="matrix(.707 -.707 .707 .707 103.404 293.738)"/><path d="m345.788 51.347h30v32.373h-30z" fill="#fdae02" transform="matrix(.707 -.707 .707 .707 57.921 274.899)"/><g fill="#f90"><path d="m474.499 89.096h30v32.373h-30z" transform="matrix(.707 -.707 .707 .707 68.921 376.96)"/><path d="m429.019 134.577h30v32.373h-30z" transform="matrix(.707 -.707 .707 .707 23.441 358.12)"/></g></g><g><path d="m301.46 260.971 107.4-107.4-25.44-25.439-67.191 52.106-40.209 55.293z" fill="#fdc673"/><path d="m241.057 151.123h151.886v35.977h-151.886z" fill="#ffdf8e" transform="matrix(.707 -.707 .707 .707 -26.733 273.685)"/></g><g><path d="m252.039 433.89c9.979-23.824 25.774-46.638 42.892-63.756 21.719-21.719 33.915-51.427 32.711-82.119-1.073-27.359-12.237-52.925-31.709-72.397l-138.096 123.012-118.317 133.402c26.311 26.312 60.73 39.52 94.845 39.52 32.976 0 65.667-12.347 90.455-37.134 11.696-11.697 20.854-25.332 27.219-40.528z" fill="#f90"/><path d="m295.933 215.618c-19.47-19.471-45.035-30.634-72.393-31.708-30.693-1.205-60.402 10.991-82.122 32.711-17.118 17.118-39.933 32.913-63.757 42.892-15.196 6.366-28.832 15.523-40.527 27.219-50.43 50.43-49.359 133.555 2.386 185.3z" fill="#fdae02"/></g><g><path d="m239.29 325.059c14.58-14.58 14.58-38.218 0-52.797l-33.941 18.856-18.856 33.941c14.579 14.579 38.217 14.579 52.797 0z" fill="#1b303e"/><path d="m186.493 272.262c-14.579 14.579-14.58 38.218 0 52.797l52.797-52.797c-14.58-14.58-38.218-14.58-52.797 0z" fill="#28485e"/><path d="m228.683 314.452c-8.708 8.708-22.876 8.708-31.584 0l-21.92 6.835.707 14.378c20.405 20.405 53.606 20.405 74.01 0 20.405-20.405 20.405-53.605 0-74.01l-14.378-.707-6.836 21.921c8.709 8.707 8.709 22.875.001 31.583z" fill="#f7f0eb"/><path d="m175.886 261.655c-20.405 20.405-20.405 53.606 0 74.01l21.213-21.213c-8.708-8.708-8.708-22.876 0-31.584s22.876-8.708 31.584 0l21.213-21.213c-20.404-20.405-53.605-20.405-74.01 0z" fill="#fffbf5"/></g><g><path d="m395.133 164.006c12.711 0 24.661-4.95 33.65-13.938l60.021-60.021c8.988-8.988 13.938-20.938 13.938-33.65 0-12.711-4.95-24.661-13.938-33.65l-77.697 65.294-49.623 62.026c8.987 8.989 20.938 13.939 33.649 13.939z" fill="#c57a44"/><path d="m488.803 22.748c-18.555-18.554-48.744-18.554-67.299 0l-60.021 60.021c-8.988 8.988-13.938 20.938-13.938 33.65 0 12.711 4.95 24.661 13.938 33.649z" fill="#d88a55"/></g><g><path d="m166.647 413.126-34.111-34.111-19.954 4.87-1.259 16.343 34.111 34.111z" fill="#efe2dd"/><path d="m89.874 348.446h30v48.24h-30z" fill="#faeee5" transform="matrix(.707 -.707 .707 .707 -232.727 183.28)"/></g></g></svg>